<?xml version="1.0" encoding="utf-8" standalone="no"?>
<!DOCTYPE svg PUBLIC "-//W3C//DTD SVG 1.1//EN"
  "http://www.w3.org/Graphics/SVG/1.1/DTD/svg11.dtd">
<svg xmlns:xlink="http://www.w3.org/1999/xlink" width="460.8pt" height="345.6pt" viewBox="0 0 460.8 345.6" xmlns="http://www.w3.org/2000/svg" version="1.1">
 <metadata>
  <rdf:RDF xmlns:dc="http://purl.org/dc/elements/1.1/" xmlns:cc="http://creativecommons.org/ns#" xmlns:rdf="http://www.w3.org/1999/02/22-rdf-syntax-ns#">
   <cc:Work>
    <dc:type rdf:resource="http://purl.org/dc/dcmitype/StillImage"/>
    <dc:date>2023-11-11T19:31:26.898476</dc:date>
    <dc:format>image/svg+xml</dc:format>
    <dc:creator>
     <cc:Agent>
      <dc:title>Matplotlib v3.7.2, https://matplotlib.org/</dc:title>
     </cc:Agent>
    </dc:creator>
   </cc:Work>
  </rdf:RDF>
 </metadata>
 <defs>
  <style type="text/css">*{stroke-linejoin: round; stroke-linecap: butt}</style>
 </defs>
 <g id="figure_1">
  <g id="patch_1">
   <path d="M 0 345.6 
L 460.8 345.6 
L 460.8 0 
L 0 0 
z
" style="fill: #ffffff"/>
  </g>
  <g id="axes_1">
   <g id="patch_2">
    <path d="M 342.6048 174.528 
C 342.6048 149.972094 334.107543 126.156865 318.563349 107.147116 
C 303.019154 88.137367 281.365738 75.079877 257.298922 70.203308 
C 233.232107 65.326739 208.203742 68.925275 186.48569 80.384714 
C 164.767638 91.844153 147.670057 110.473196 138.111177 133.092222 
L 236.16 174.528 
z
" style="fill: #1f77b4"/>
   </g>
   <g id="patch_3">
    <path d="M 138.111177 133.092222 
C 133.630808 143.694048 130.899485 154.952715 130.023758 166.429018 
C 129.148031 177.905321 130.139437 189.44806 132.959303 200.606948 
L 236.16 174.528 
z
" style="fill: #ff7f0e"/>
   </g>
   <g id="patch_4">
    <path d="M 132.959303 200.606948 
C 139.373543 225.989645 154.932122 248.134732 176.636822 262.774738 
C 198.341522 277.414743 224.702437 283.544712 250.63968 279.983366 
L 236.16 174.528 
z
" style="fill: #2ca02c"/>
   </g>
   <g id="patch_5">
    <path d="M 250.63968 279.983366 
C 261.144598 278.540976 271.375273 275.536979 280.992389 271.071008 
C 290.609504 266.605037 299.505548 260.727018 307.38547 253.631905 
L 236.16 174.528 
z
" style="fill: #d62728"/>
   </g>
   <g id="patch_6">
    <path d="M 307.38547 253.631905 
C 308.724329 252.426392 310.032366 251.187082 311.308317 249.915173 
C 312.584269 248.643264 313.827724 247.339166 315.03748 246.00414 
L 236.16 174.528 
z
" style="fill: #9467bd"/>
   </g>
   <g id="patch_7">
    <path d="M 315.03748 246.00414 
C 315.188691 245.837271 315.339373 245.669922 315.489523 245.502096 
C 315.639672 245.33427 315.789288 245.165968 315.93837 244.997193 
L 236.16 174.528 
z
" style="fill: #8c564b"/>
   </g>
   <g id="patch_8">
    <path d="M 315.93837 244.997193 
C 322.958146 237.050084 328.751211 228.098486 333.125426 218.439292 
C 337.499642 208.780097 340.40611 198.521288 341.748431 188.003115 
L 236.16 174.528 
z
" style="fill: #e377c2"/>
   </g>
   <g id="patch_9">
    <path d="M 341.748431 188.003115 
C 342.033528 185.769151 342.247656 183.526701 342.390492 181.279153 
C 342.533328 179.031605 342.6048 176.780089 342.6048 174.528007 
L 236.16 174.528 
z
" style="fill: #7f7f7f"/>
   </g>
   <g id="patch_10">
    <path d="M 342.6048 174.528 
C 342.6048 153.330074 336.272616 132.607698 324.423977 115.030388 
C 312.575338 97.453078 295.741865 83.809486 276.092094 75.857218 
C 256.442324 67.90495 234.857893 66.000805 214.11937 70.390081 
C 193.380848 74.779358 174.418721 85.265119 159.675746 100.496558 
L 236.16 174.528 
z
" style="fill: #bcbd22"/>
   </g>
   <g id="patch_11">
    <path d="M 159.675746 100.496558 
C 143.670633 117.031954 133.45138 138.320022 130.559192 161.150225 
C 127.667005 183.980429 132.254974 207.144313 143.631169 227.148441 
L 236.16 174.528 
z
" style="fill: #17becf"/>
   </g>
   <g id="patch_12">
    <path d="M 143.631169 227.148441 
C 154.851107 246.877804 172.092411 262.510806 192.822757 271.751345 
C 213.553103 280.991883 236.705319 283.364266 258.878915 278.52005 
L 236.16 174.528 
z
" style="fill: #1f77b4"/>
   </g>
   <g id="patch_13">
    <path d="M 258.878915 278.52005 
C 271.414379 275.781454 283.352 270.798704 294.114604 263.812709 
C 304.877208 256.826715 314.288501 247.95191 321.893454 237.617383 
L 236.16 174.528 
z
" style="fill: #ff7f0e"/>
   </g>
   <g id="patch_14">
    <path d="M 321.893454 237.617383 
C 325.550915 232.647185 328.769254 227.368338 331.512088 221.840522 
C 334.254922 216.312706 336.511874 210.556831 338.25743 204.637969 
L 236.16 174.528 
z
" style="fill: #2ca02c"/>
   </g>
   <g id="patch_15">
    <path d="M 338.25743 204.637969 
C 338.519102 203.750686 338.769197 202.860028 339.007651 201.966225 
C 339.246104 201.072421 339.472896 200.175547 339.687969 199.275831 
L 236.16 174.528 
z
" style="fill: #d62728"/>
   </g>
   <g id="patch_16">
    <path d="M 339.687969 199.275831 
C 340.046432 197.776267 340.372272 196.269091 340.665258 194.755371 
C 340.958244 193.241651 341.218307 191.721744 341.445262 190.196726 
L 236.16 174.528 
z
" style="fill: #9467bd"/>
   </g>
   <g id="patch_17">
    <path d="M 341.445262 190.196726 
C 341.831116 187.604002 342.121066 184.997911 342.31452 182.383781 
C 342.507974 179.769652 342.6048 177.149268 342.6048 174.52799 
L 236.16 174.528 
z
" style="fill: #8c564b"/>
   </g>
   <g id="patch_18">
    <path d="M 342.6048 174.528 
C 342.6048 154.826451 337.135049 135.506391 326.807333 118.728748 
C 316.479617 101.951105 301.693895 88.365623 284.103934 79.491824 
C 266.513973 70.618025 246.800976 66.799563 227.169821 68.463528 
C 207.538666 70.127494 188.749605 77.209446 172.904173 88.917278 
L 236.16 174.528 
z
" style="fill: #e377c2"/>
   </g>
   <g id="patch_19">
    <path d="M 172.904173 88.917278 
C 152.912673 103.688545 138.713147 125.005715 132.785864 149.145261 
C 126.858581 173.284807 129.569987 198.754329 140.446475 221.104997 
L 236.16 174.528 
z
" style="fill: #7f7f7f"/>
   </g>
   <g id="patch_20">
    <path d="M 140.446475 221.104997 
C 148.546419 237.749998 160.849937 251.997704 176.137502 262.435879 
C 191.425067 272.874054 209.174318 279.146036 227.625945 280.630146 
L 236.16 174.528 
z
" style="fill: #bcbd22"/>
   </g>
   <g id="patch_21">
    <path d="M 227.625945 280.630146 
C 239.616948 281.594611 251.685145 280.519413 263.316784 277.450323 
C 274.948423 274.381233 285.976071 269.362428 295.930274 262.607565 
L 236.16 174.528 
z
" style="fill: #17becf"/>
   </g>
   <g id="patch_22">
    <path d="M 295.930274 262.607565 
C 302.332567 258.263006 308.242126 253.233318 313.554116 247.607725 
C 318.866107 241.982132 323.548932 235.794096 327.519522 229.15339 
L 236.16 174.528 
z
" style="fill: #1f77b4"/>
   </g>
   <g id="patch_23">
    <path d="M 327.519522 229.15339 
C 330.287082 224.524718 332.698882 219.692407 334.734081 214.698213 
C 336.769279 209.70402 338.421997 204.562372 339.677951 199.317701 
L 236.16 174.528 
z
" style="fill: #ff7f0e"/>
   </g>
   <g id="patch_24">
    <path d="M 339.677951 199.317701 
C 340.175392 197.240465 340.610196 195.148727 340.981773 193.045328 
C 341.353349 190.941929 341.66153 188.827823 341.905897 186.70588 
L 236.16 174.528 
z
" style="fill: #2ca02c"/>
   </g>
   <g id="patch_25">
    <path d="M 341.905897 186.70588 
C 342.138625 184.684996 342.313375 182.657856 342.429931 180.626958 
C 342.546486 178.59606 342.6048 176.562238 342.6048 174.527998 
L 236.16 174.528 
z
" style="fill: #d62728"/>
   </g>
   <g id="matplotlib.axis_1"/>
   <g id="matplotlib.axis_2"/>
   <g id="text_1">
    <!-- Fastest -->
    <g transform="translate(259.412814 62.530214) scale(0.1 -0.1)">
     <defs>
      <path id="DejaVuSans-46" d="M 628 4666 
L 3309 4666 
L 3309 4134 
L 1259 4134 
L 1259 2759 
L 3109 2759 
L 3109 2228 
L 1259 2228 
L 1259 0 
L 628 0 
L 628 4666 
z
" transform="scale(0.015625)"/>
      <path id="DejaVuSans-61" d="M 2194 1759 
Q 1497 1759 1228 1600 
Q 959 1441 959 1056 
Q 959 750 1161 570 
Q 1363 391 1709 391 
Q 2188 391 2477 730 
Q 2766 1069 2766 1631 
L 2766 1759 
L 2194 1759 
z
M 3341 1997 
L 3341 0 
L 2766 0 
L 2766 531 
Q 2569 213 2275 61 
Q 1981 -91 1556 -91 
Q 1019 -91 701 211 
Q 384 513 384 1019 
Q 384 1609 779 1909 
Q 1175 2209 1959 2209 
L 2766 2209 
L 2766 2266 
Q 2766 2663 2505 2880 
Q 2244 3097 1772 3097 
Q 1472 3097 1187 3025 
Q 903 2953 641 2809 
L 641 3341 
Q 956 3463 1253 3523 
Q 1550 3584 1831 3584 
Q 2591 3584 2966 3190 
Q 3341 2797 3341 1997 
z
" transform="scale(0.015625)"/>
      <path id="DejaVuSans-73" d="M 2834 3397 
L 2834 2853 
Q 2591 2978 2328 3040 
Q 2066 3103 1784 3103 
Q 1356 3103 1142 2972 
Q 928 2841 928 2578 
Q 928 2378 1081 2264 
Q 1234 2150 1697 2047 
L 1894 2003 
Q 2506 1872 2764 1633 
Q 3022 1394 3022 966 
Q 3022 478 2636 193 
Q 2250 -91 1575 -91 
Q 1294 -91 989 -36 
Q 684 19 347 128 
L 347 722 
Q 666 556 975 473 
Q 1284 391 1588 391 
Q 1994 391 2212 530 
Q 2431 669 2431 922 
Q 2431 1156 2273 1281 
Q 2116 1406 1581 1522 
L 1381 1569 
Q 847 1681 609 1914 
Q 372 2147 372 2553 
Q 372 3047 722 3315 
Q 1072 3584 1716 3584 
Q 2034 3584 2315 3537 
Q 2597 3491 2834 3397 
z
" transform="scale(0.015625)"/>
      <path id="DejaVuSans-74" d="M 1172 4494 
L 1172 3500 
L 2356 3500 
L 2356 3053 
L 1172 3053 
L 1172 1153 
Q 1172 725 1289 603 
Q 1406 481 1766 481 
L 2356 481 
L 2356 0 
L 1766 0 
Q 1100 0 847 248 
Q 594 497 594 1153 
L 594 3053 
L 172 3053 
L 172 3500 
L 594 3500 
L 594 4494 
L 1172 4494 
z
" transform="scale(0.015625)"/>
      <path id="DejaVuSans-65" d="M 3597 1894 
L 3597 1613 
L 953 1613 
Q 991 1019 1311 708 
Q 1631 397 2203 397 
Q 2534 397 2845 478 
Q 3156 559 3463 722 
L 3463 178 
Q 3153 47 2828 -22 
Q 2503 -91 2169 -91 
Q 1331 -91 842 396 
Q 353 884 353 1716 
Q 353 2575 817 3079 
Q 1281 3584 2069 3584 
Q 2775 3584 3186 3129 
Q 3597 2675 3597 1894 
z
M 3022 2063 
Q 3016 2534 2758 2815 
Q 2500 3097 2075 3097 
Q 1594 3097 1305 2825 
Q 1016 2553 972 2059 
L 3022 2063 
z
" transform="scale(0.015625)"/>
     </defs>
     <use xlink:href="#DejaVuSans-46"/>
     <use xlink:href="#DejaVuSans-61" x="48.394531"/>
     <use xlink:href="#DejaVuSans-73" x="109.673828"/>
     <use xlink:href="#DejaVuSans-74" x="161.773438"/>
     <use xlink:href="#DejaVuSans-65" x="200.982422"/>
     <use xlink:href="#DejaVuSans-73" x="262.505859"/>
     <use xlink:href="#DejaVuSans-74" x="314.605469"/>
    </g>
   </g>
   <g id="text_2">
    <!-- Cheapest -->
    <g transform="translate(72.177321 168.378495) scale(0.1 -0.1)">
     <defs>
      <path id="DejaVuSans-43" d="M 4122 4306 
L 4122 3641 
Q 3803 3938 3442 4084 
Q 3081 4231 2675 4231 
Q 1875 4231 1450 3742 
Q 1025 3253 1025 2328 
Q 1025 1406 1450 917 
Q 1875 428 2675 428 
Q 3081 428 3442 575 
Q 3803 722 4122 1019 
L 4122 359 
Q 3791 134 3420 21 
Q 3050 -91 2638 -91 
Q 1578 -91 968 557 
Q 359 1206 359 2328 
Q 359 3453 968 4101 
Q 1578 4750 2638 4750 
Q 3056 4750 3426 4639 
Q 3797 4528 4122 4306 
z
" transform="scale(0.015625)"/>
      <path id="DejaVuSans-68" d="M 3513 2113 
L 3513 0 
L 2938 0 
L 2938 2094 
Q 2938 2591 2744 2837 
Q 2550 3084 2163 3084 
Q 1697 3084 1428 2787 
Q 1159 2491 1159 1978 
L 1159 0 
L 581 0 
L 581 4863 
L 1159 4863 
L 1159 2956 
Q 1366 3272 1645 3428 
Q 1925 3584 2291 3584 
Q 2894 3584 3203 3211 
Q 3513 2838 3513 2113 
z
" transform="scale(0.015625)"/>
      <path id="DejaVuSans-70" d="M 1159 525 
L 1159 -1331 
L 581 -1331 
L 581 3500 
L 1159 3500 
L 1159 2969 
Q 1341 3281 1617 3432 
Q 1894 3584 2278 3584 
Q 2916 3584 3314 3078 
Q 3713 2572 3713 1747 
Q 3713 922 3314 415 
Q 2916 -91 2278 -91 
Q 1894 -91 1617 61 
Q 1341 213 1159 525 
z
M 3116 1747 
Q 3116 2381 2855 2742 
Q 2594 3103 2138 3103 
Q 1681 3103 1420 2742 
Q 1159 2381 1159 1747 
Q 1159 1113 1420 752 
Q 1681 391 2138 391 
Q 2594 391 2855 752 
Q 3116 1113 3116 1747 
z
" transform="scale(0.015625)"/>
     </defs>
     <use xlink:href="#DejaVuSans-43"/>
     <use xlink:href="#DejaVuSans-68" x="69.824219"/>
     <use xlink:href="#DejaVuSans-65" x="133.203125"/>
     <use xlink:href="#DejaVuSans-61" x="194.726562"/>
     <use xlink:href="#DejaVuSans-70" x="256.005859"/>
     <use xlink:href="#DejaVuSans-65" x="319.482422"/>
     <use xlink:href="#DejaVuSans-73" x="381.005859"/>
     <use xlink:href="#DejaVuSans-74" x="433.105469"/>
    </g>
   </g>
   <g id="text_3">
    <!-- Comfortable -->
    <g transform="translate(108.764192 274.358787) scale(0.1 -0.1)">
     <defs>
      <path id="DejaVuSans-6f" d="M 1959 3097 
Q 1497 3097 1228 2736 
Q 959 2375 959 1747 
Q 959 1119 1226 758 
Q 1494 397 1959 397 
Q 2419 397 2687 759 
Q 2956 1122 2956 1747 
Q 2956 2369 2687 2733 
Q 2419 3097 1959 3097 
z
M 1959 3584 
Q 2709 3584 3137 3096 
Q 3566 2609 3566 1747 
Q 3566 888 3137 398 
Q 2709 -91 1959 -91 
Q 1206 -91 779 398 
Q 353 888 353 1747 
Q 353 2609 779 3096 
Q 1206 3584 1959 3584 
z
" transform="scale(0.015625)"/>
      <path id="DejaVuSans-6d" d="M 3328 2828 
Q 3544 3216 3844 3400 
Q 4144 3584 4550 3584 
Q 5097 3584 5394 3201 
Q 5691 2819 5691 2113 
L 5691 0 
L 5113 0 
L 5113 2094 
Q 5113 2597 4934 2840 
Q 4756 3084 4391 3084 
Q 3944 3084 3684 2787 
Q 3425 2491 3425 1978 
L 3425 0 
L 2847 0 
L 2847 2094 
Q 2847 2600 2669 2842 
Q 2491 3084 2119 3084 
Q 1678 3084 1418 2786 
Q 1159 2488 1159 1978 
L 1159 0 
L 581 0 
L 581 3500 
L 1159 3500 
L 1159 2956 
Q 1356 3278 1631 3431 
Q 1906 3584 2284 3584 
Q 2666 3584 2933 3390 
Q 3200 3197 3328 2828 
z
" transform="scale(0.015625)"/>
      <path id="DejaVuSans-66" d="M 2375 4863 
L 2375 4384 
L 1825 4384 
Q 1516 4384 1395 4259 
Q 1275 4134 1275 3809 
L 1275 3500 
L 2222 3500 
L 2222 3053 
L 1275 3053 
L 1275 0 
L 697 0 
L 697 3053 
L 147 3053 
L 147 3500 
L 697 3500 
L 697 3744 
Q 697 4328 969 4595 
Q 1241 4863 1831 4863 
L 2375 4863 
z
" transform="scale(0.015625)"/>
      <path id="DejaVuSans-72" d="M 2631 2963 
Q 2534 3019 2420 3045 
Q 2306 3072 2169 3072 
Q 1681 3072 1420 2755 
Q 1159 2438 1159 1844 
L 1159 0 
L 581 0 
L 581 3500 
L 1159 3500 
L 1159 2956 
Q 1341 3275 1631 3429 
Q 1922 3584 2338 3584 
Q 2397 3584 2469 3576 
Q 2541 3569 2628 3553 
L 2631 2963 
z
" transform="scale(0.015625)"/>
      <path id="DejaVuSans-62" d="M 3116 1747 
Q 3116 2381 2855 2742 
Q 2594 3103 2138 3103 
Q 1681 3103 1420 2742 
Q 1159 2381 1159 1747 
Q 1159 1113 1420 752 
Q 1681 391 2138 391 
Q 2594 391 2855 752 
Q 3116 1113 3116 1747 
z
M 1159 2969 
Q 1341 3281 1617 3432 
Q 1894 3584 2278 3584 
Q 2916 3584 3314 3078 
Q 3713 2572 3713 1747 
Q 3713 922 3314 415 
Q 2916 -91 2278 -91 
Q 1894 -91 1617 61 
Q 1341 213 1159 525 
L 1159 0 
L 581 0 
L 581 4863 
L 1159 4863 
L 1159 2969 
z
" transform="scale(0.015625)"/>
      <path id="DejaVuSans-6c" d="M 603 4863 
L 1178 4863 
L 1178 0 
L 603 0 
L 603 4863 
z
" transform="scale(0.015625)"/>
     </defs>
     <use xlink:href="#DejaVuSans-43"/>
     <use xlink:href="#DejaVuSans-6f" x="69.824219"/>
     <use xlink:href="#DejaVuSans-6d" x="131.005859"/>
     <use xlink:href="#DejaVuSans-66" x="228.417969"/>
     <use xlink:href="#DejaVuSans-6f" x="263.623047"/>
     <use xlink:href="#DejaVuSans-72" x="324.804688"/>
     <use xlink:href="#DejaVuSans-74" x="365.917969"/>
     <use xlink:href="#DejaVuSans-61" x="405.126953"/>
     <use xlink:href="#DejaVuSans-62" x="466.40625"/>
     <use xlink:href="#DejaVuSans-6c" x="529.882812"/>
     <use xlink:href="#DejaVuSans-65" x="557.666016"/>
    </g>
   </g>
   <g id="text_4">
    <!-- Only_option -->
    <g transform="translate(285.475627 283.345621) scale(0.1 -0.1)">
     <defs>
      <path id="DejaVuSans-4f" d="M 2522 4238 
Q 1834 4238 1429 3725 
Q 1025 3213 1025 2328 
Q 1025 1447 1429 934 
Q 1834 422 2522 422 
Q 3209 422 3611 934 
Q 4013 1447 4013 2328 
Q 4013 3213 3611 3725 
Q 3209 4238 2522 4238 
z
M 2522 4750 
Q 3503 4750 4090 4092 
Q 4678 3434 4678 2328 
Q 4678 1225 4090 567 
Q 3503 -91 2522 -91 
Q 1538 -91 948 565 
Q 359 1222 359 2328 
Q 359 3434 948 4092 
Q 1538 4750 2522 4750 
z
" transform="scale(0.015625)"/>
      <path id="DejaVuSans-6e" d="M 3513 2113 
L 3513 0 
L 2938 0 
L 2938 2094 
Q 2938 2591 2744 2837 
Q 2550 3084 2163 3084 
Q 1697 3084 1428 2787 
Q 1159 2491 1159 1978 
L 1159 0 
L 581 0 
L 581 3500 
L 1159 3500 
L 1159 2956 
Q 1366 3272 1645 3428 
Q 1925 3584 2291 3584 
Q 2894 3584 3203 3211 
Q 3513 2838 3513 2113 
z
" transform="scale(0.015625)"/>
      <path id="DejaVuSans-79" d="M 2059 -325 
Q 1816 -950 1584 -1140 
Q 1353 -1331 966 -1331 
L 506 -1331 
L 506 -850 
L 844 -850 
Q 1081 -850 1212 -737 
Q 1344 -625 1503 -206 
L 1606 56 
L 191 3500 
L 800 3500 
L 1894 763 
L 2988 3500 
L 3597 3500 
L 2059 -325 
z
" transform="scale(0.015625)"/>
      <path id="DejaVuSans-5f" d="M 3263 -1063 
L 3263 -1509 
L -63 -1509 
L -63 -1063 
L 3263 -1063 
z
" transform="scale(0.015625)"/>
      <path id="DejaVuSans-69" d="M 603 3500 
L 1178 3500 
L 1178 0 
L 603 0 
L 603 3500 
z
M 603 4863 
L 1178 4863 
L 1178 4134 
L 603 4134 
L 603 4863 
z
" transform="scale(0.015625)"/>
     </defs>
     <use xlink:href="#DejaVuSans-4f"/>
     <use xlink:href="#DejaVuSans-6e" x="78.710938"/>
     <use xlink:href="#DejaVuSans-6c" x="142.089844"/>
     <use xlink:href="#DejaVuSans-79" x="169.873047"/>
     <use xlink:href="#DejaVuSans-5f" x="229.052734"/>
     <use xlink:href="#DejaVuSans-6f" x="279.052734"/>
     <use xlink:href="#DejaVuSans-70" x="340.234375"/>
     <use xlink:href="#DejaVuSans-74" x="403.710938"/>
     <use xlink:href="#DejaVuSans-69" x="442.919922"/>
     <use xlink:href="#DejaVuSans-6f" x="470.703125"/>
     <use xlink:href="#DejaVuSans-6e" x="531.884766"/>
    </g>
   </g>
   <g id="text_5">
    <!-- Environmental -->
    <g transform="translate(318.823149 260.213265) scale(0.1 -0.1)">
     <defs>
      <path id="DejaVuSans-45" d="M 628 4666 
L 3578 4666 
L 3578 4134 
L 1259 4134 
L 1259 2753 
L 3481 2753 
L 3481 2222 
L 1259 2222 
L 1259 531 
L 3634 531 
L 3634 0 
L 628 0 
L 628 4666 
z
" transform="scale(0.015625)"/>
      <path id="DejaVuSans-76" d="M 191 3500 
L 800 3500 
L 1894 563 
L 2988 3500 
L 3597 3500 
L 2284 0 
L 1503 0 
L 191 3500 
z
" transform="scale(0.015625)"/>
     </defs>
     <use xlink:href="#DejaVuSans-45"/>
     <use xlink:href="#DejaVuSans-6e" x="63.183594"/>
     <use xlink:href="#DejaVuSans-76" x="126.5625"/>
     <use xlink:href="#DejaVuSans-69" x="185.742188"/>
     <use xlink:href="#DejaVuSans-72" x="213.525391"/>
     <use xlink:href="#DejaVuSans-6f" x="252.388672"/>
     <use xlink:href="#DejaVuSans-6e" x="313.570312"/>
     <use xlink:href="#DejaVuSans-6d" x="376.949219"/>
     <use xlink:href="#DejaVuSans-65" x="474.361328"/>
     <use xlink:href="#DejaVuSans-6e" x="535.884766"/>
     <use xlink:href="#DejaVuSans-74" x="599.263672"/>
     <use xlink:href="#DejaVuSans-61" x="638.472656"/>
     <use xlink:href="#DejaVuSans-6c" x="699.751953"/>
    </g>
   </g>
   <g id="text_6">
    <!-- Healthiest -->
    <g transform="translate(323.422475 255.358881) scale(0.1 -0.1)">
     <defs>
      <path id="DejaVuSans-48" d="M 628 4666 
L 1259 4666 
L 1259 2753 
L 3553 2753 
L 3553 4666 
L 4184 4666 
L 4184 0 
L 3553 0 
L 3553 2222 
L 1259 2222 
L 1259 0 
L 628 0 
L 628 4666 
z
" transform="scale(0.015625)"/>
     </defs>
     <use xlink:href="#DejaVuSans-48"/>
     <use xlink:href="#DejaVuSans-65" x="75.195312"/>
     <use xlink:href="#DejaVuSans-61" x="136.71875"/>
     <use xlink:href="#DejaVuSans-6c" x="197.998047"/>
     <use xlink:href="#DejaVuSans-74" x="225.78125"/>
     <use xlink:href="#DejaVuSans-68" x="264.990234"/>
     <use xlink:href="#DejaVuSans-69" x="328.369141"/>
     <use xlink:href="#DejaVuSans-65" x="356.152344"/>
     <use xlink:href="#DejaVuSans-73" x="417.675781"/>
     <use xlink:href="#DejaVuSans-74" x="469.775391"/>
    </g>
   </g>
   <g id="text_7">
    <!-- Need_for_other_trips -->
    <g transform="translate(342.821969 225.450733) scale(0.1 -0.1)">
     <defs>
      <path id="DejaVuSans-4e" d="M 628 4666 
L 1478 4666 
L 3547 763 
L 3547 4666 
L 4159 4666 
L 4159 0 
L 3309 0 
L 1241 3903 
L 1241 0 
L 628 0 
L 628 4666 
z
" transform="scale(0.015625)"/>
      <path id="DejaVuSans-64" d="M 2906 2969 
L 2906 4863 
L 3481 4863 
L 3481 0 
L 2906 0 
L 2906 525 
Q 2725 213 2448 61 
Q 2172 -91 1784 -91 
Q 1150 -91 751 415 
Q 353 922 353 1747 
Q 353 2572 751 3078 
Q 1150 3584 1784 3584 
Q 2172 3584 2448 3432 
Q 2725 3281 2906 2969 
z
M 947 1747 
Q 947 1113 1208 752 
Q 1469 391 1925 391 
Q 2381 391 2643 752 
Q 2906 1113 2906 1747 
Q 2906 2381 2643 2742 
Q 2381 3103 1925 3103 
Q 1469 3103 1208 2742 
Q 947 2381 947 1747 
z
" transform="scale(0.015625)"/>
     </defs>
     <use xlink:href="#DejaVuSans-4e"/>
     <use xlink:href="#DejaVuSans-65" x="74.804688"/>
     <use xlink:href="#DejaVuSans-65" x="136.328125"/>
     <use xlink:href="#DejaVuSans-64" x="197.851562"/>
     <use xlink:href="#DejaVuSans-5f" x="261.328125"/>
     <use xlink:href="#DejaVuSans-66" x="311.328125"/>
     <use xlink:href="#DejaVuSans-6f" x="346.533203"/>
     <use xlink:href="#DejaVuSans-72" x="407.714844"/>
     <use xlink:href="#DejaVuSans-5f" x="448.828125"/>
     <use xlink:href="#DejaVuSans-6f" x="498.828125"/>
     <use xlink:href="#DejaVuSans-74" x="560.009766"/>
     <use xlink:href="#DejaVuSans-68" x="599.21875"/>
     <use xlink:href="#DejaVuSans-65" x="662.597656"/>
     <use xlink:href="#DejaVuSans-72" x="724.121094"/>
     <use xlink:href="#DejaVuSans-5f" x="765.234375"/>
     <use xlink:href="#DejaVuSans-74" x="815.234375"/>
     <use xlink:href="#DejaVuSans-72" x="854.443359"/>
     <use xlink:href="#DejaVuSans-69" x="895.556641"/>
     <use xlink:href="#DejaVuSans-70" x="923.339844"/>
     <use xlink:href="#DejaVuSans-73" x="986.816406"/>
    </g>
   </g>
   <g id="text_8">
    <!-- Other -->
    <g transform="translate(353.013541 184.713643) scale(0.1 -0.1)">
     <use xlink:href="#DejaVuSans-4f"/>
     <use xlink:href="#DejaVuSans-74" x="78.710938"/>
     <use xlink:href="#DejaVuSans-68" x="117.919922"/>
     <use xlink:href="#DejaVuSans-65" x="181.298828"/>
     <use xlink:href="#DejaVuSans-72" x="242.822266"/>
    </g>
   </g>
   <g id="text_9">
    <!-- Fastest -->
    <g transform="translate(280.085304 68.749514) scale(0.1 -0.1)">
     <use xlink:href="#DejaVuSans-46"/>
     <use xlink:href="#DejaVuSans-61" x="48.394531"/>
     <use xlink:href="#DejaVuSans-73" x="109.673828"/>
     <use xlink:href="#DejaVuSans-74" x="161.773438"/>
     <use xlink:href="#DejaVuSans-65" x="200.982422"/>
     <use xlink:href="#DejaVuSans-73" x="262.505859"/>
     <use xlink:href="#DejaVuSans-74" x="314.605469"/>
    </g>
   </g>
   <g id="text_10">
    <!-- Cheapest -->
    <g transform="translate(72.766299 162.571823) scale(0.1 -0.1)">
     <use xlink:href="#DejaVuSans-43"/>
     <use xlink:href="#DejaVuSans-68" x="69.824219"/>
     <use xlink:href="#DejaVuSans-65" x="133.203125"/>
     <use xlink:href="#DejaVuSans-61" x="194.726562"/>
     <use xlink:href="#DejaVuSans-70" x="256.005859"/>
     <use xlink:href="#DejaVuSans-65" x="319.482422"/>
     <use xlink:href="#DejaVuSans-73" x="381.005859"/>
     <use xlink:href="#DejaVuSans-74" x="433.105469"/>
    </g>
   </g>
   <g id="text_11">
    <!-- Comfortable -->
    <g transform="translate(126.56872 284.233054) scale(0.1 -0.1)">
     <use xlink:href="#DejaVuSans-43"/>
     <use xlink:href="#DejaVuSans-6f" x="69.824219"/>
     <use xlink:href="#DejaVuSans-6d" x="131.005859"/>
     <use xlink:href="#DejaVuSans-66" x="228.417969"/>
     <use xlink:href="#DejaVuSans-6f" x="263.623047"/>
     <use xlink:href="#DejaVuSans-72" x="324.804688"/>
     <use xlink:href="#DejaVuSans-74" x="365.917969"/>
     <use xlink:href="#DejaVuSans-61" x="405.126953"/>
     <use xlink:href="#DejaVuSans-62" x="466.40625"/>
     <use xlink:href="#DejaVuSans-6c" x="529.882812"/>
     <use xlink:href="#DejaVuSans-65" x="557.666016"/>
    </g>
   </g>
   <g id="text_12">
    <!-- Only_option -->
    <g transform="translate(299.910064 275.361493) scale(0.1 -0.1)">
     <use xlink:href="#DejaVuSans-4f"/>
     <use xlink:href="#DejaVuSans-6e" x="78.710938"/>
     <use xlink:href="#DejaVuSans-6c" x="142.089844"/>
     <use xlink:href="#DejaVuSans-79" x="169.873047"/>
     <use xlink:href="#DejaVuSans-5f" x="229.052734"/>
     <use xlink:href="#DejaVuSans-6f" x="279.052734"/>
     <use xlink:href="#DejaVuSans-70" x="340.234375"/>
     <use xlink:href="#DejaVuSans-74" x="403.710938"/>
     <use xlink:href="#DejaVuSans-69" x="442.919922"/>
     <use xlink:href="#DejaVuSans-6f" x="470.703125"/>
     <use xlink:href="#DejaVuSans-6e" x="531.884766"/>
    </g>
   </g>
   <g id="text_13">
    <!-- Environmental -->
    <g transform="translate(341.047297 229.331149) scale(0.1 -0.1)">
     <use xlink:href="#DejaVuSans-45"/>
     <use xlink:href="#DejaVuSans-6e" x="63.183594"/>
     <use xlink:href="#DejaVuSans-76" x="126.5625"/>
     <use xlink:href="#DejaVuSans-69" x="185.742188"/>
     <use xlink:href="#DejaVuSans-72" x="213.525391"/>
     <use xlink:href="#DejaVuSans-6f" x="252.388672"/>
     <use xlink:href="#DejaVuSans-6e" x="313.570312"/>
     <use xlink:href="#DejaVuSans-6d" x="376.949219"/>
     <use xlink:href="#DejaVuSans-65" x="474.361328"/>
     <use xlink:href="#DejaVuSans-6e" x="535.884766"/>
     <use xlink:href="#DejaVuSans-74" x="599.263672"/>
     <use xlink:href="#DejaVuSans-61" x="638.472656"/>
     <use xlink:href="#DejaVuSans-6c" x="699.751953"/>
    </g>
   </g>
   <g id="text_14">
    <!-- Healthiest -->
    <g transform="translate(349.292416 207.469422) scale(0.1 -0.1)">
     <use xlink:href="#DejaVuSans-48"/>
     <use xlink:href="#DejaVuSans-65" x="75.195312"/>
     <use xlink:href="#DejaVuSans-61" x="136.71875"/>
     <use xlink:href="#DejaVuSans-6c" x="197.998047"/>
     <use xlink:href="#DejaVuSans-74" x="225.78125"/>
     <use xlink:href="#DejaVuSans-68" x="264.990234"/>
     <use xlink:href="#DejaVuSans-69" x="328.369141"/>
     <use xlink:href="#DejaVuSans-65" x="356.152344"/>
     <use xlink:href="#DejaVuSans-73" x="417.675781"/>
     <use xlink:href="#DejaVuSans-74" x="469.775391"/>
    </g>
   </g>
   <g id="text_15">
    <!-- Need_for_other_trips -->
    <g transform="translate(351.115784 199.398421) scale(0.1 -0.1)">
     <use xlink:href="#DejaVuSans-4e"/>
     <use xlink:href="#DejaVuSans-65" x="74.804688"/>
     <use xlink:href="#DejaVuSans-65" x="136.328125"/>
     <use xlink:href="#DejaVuSans-64" x="197.851562"/>
     <use xlink:href="#DejaVuSans-5f" x="261.328125"/>
     <use xlink:href="#DejaVuSans-66" x="311.328125"/>
     <use xlink:href="#DejaVuSans-6f" x="346.533203"/>
     <use xlink:href="#DejaVuSans-72" x="407.714844"/>
     <use xlink:href="#DejaVuSans-5f" x="448.828125"/>
     <use xlink:href="#DejaVuSans-6f" x="498.828125"/>
     <use xlink:href="#DejaVuSans-74" x="560.009766"/>
     <use xlink:href="#DejaVuSans-68" x="599.21875"/>
     <use xlink:href="#DejaVuSans-65" x="662.597656"/>
     <use xlink:href="#DejaVuSans-72" x="724.121094"/>
     <use xlink:href="#DejaVuSans-5f" x="765.234375"/>
     <use xlink:href="#DejaVuSans-74" x="815.234375"/>
     <use xlink:href="#DejaVuSans-72" x="854.443359"/>
     <use xlink:href="#DejaVuSans-69" x="895.556641"/>
     <use xlink:href="#DejaVuSans-70" x="923.339844"/>
     <use xlink:href="#DejaVuSans-73" x="986.816406"/>
    </g>
   </g>
   <g id="text_16">
    <!-- Other -->
    <g transform="translate(352.929972 185.928734) scale(0.1 -0.1)">
     <use xlink:href="#DejaVuSans-4f"/>
     <use xlink:href="#DejaVuSans-74" x="78.710938"/>
     <use xlink:href="#DejaVuSans-68" x="117.919922"/>
     <use xlink:href="#DejaVuSans-65" x="181.298828"/>
     <use xlink:href="#DejaVuSans-72" x="242.822266"/>
    </g>
   </g>
   <g id="text_17">
    <!-- Fastest -->
    <g transform="translate(288.898327 72.747582) scale(0.1 -0.1)">
     <use xlink:href="#DejaVuSans-46"/>
     <use xlink:href="#DejaVuSans-61" x="48.394531"/>
     <use xlink:href="#DejaVuSans-73" x="109.673828"/>
     <use xlink:href="#DejaVuSans-74" x="161.773438"/>
     <use xlink:href="#DejaVuSans-65" x="200.982422"/>
     <use xlink:href="#DejaVuSans-73" x="262.505859"/>
     <use xlink:href="#DejaVuSans-74" x="314.605469"/>
    </g>
   </g>
   <g id="text_18">
    <!-- Cheapest -->
    <g transform="translate(75.215638 149.366362) scale(0.1 -0.1)">
     <use xlink:href="#DejaVuSans-43"/>
     <use xlink:href="#DejaVuSans-68" x="69.824219"/>
     <use xlink:href="#DejaVuSans-65" x="133.203125"/>
     <use xlink:href="#DejaVuSans-61" x="194.726562"/>
     <use xlink:href="#DejaVuSans-70" x="256.005859"/>
     <use xlink:href="#DejaVuSans-65" x="319.482422"/>
     <use xlink:href="#DejaVuSans-73" x="381.005859"/>
     <use xlink:href="#DejaVuSans-74" x="433.105469"/>
    </g>
   </g>
   <g id="text_19">
    <!-- Comfortable -->
    <g transform="translate(108.214939 273.986042) scale(0.1 -0.1)">
     <use xlink:href="#DejaVuSans-43"/>
     <use xlink:href="#DejaVuSans-6f" x="69.824219"/>
     <use xlink:href="#DejaVuSans-6d" x="131.005859"/>
     <use xlink:href="#DejaVuSans-66" x="228.417969"/>
     <use xlink:href="#DejaVuSans-6f" x="263.623047"/>
     <use xlink:href="#DejaVuSans-72" x="324.804688"/>
     <use xlink:href="#DejaVuSans-74" x="365.917969"/>
     <use xlink:href="#DejaVuSans-61" x="405.126953"/>
     <use xlink:href="#DejaVuSans-62" x="466.40625"/>
     <use xlink:href="#DejaVuSans-6c" x="529.882812"/>
     <use xlink:href="#DejaVuSans-65" x="557.666016"/>
    </g>
   </g>
   <g id="text_20">
    <!-- Only_option -->
    <g transform="translate(266.032462 290.362868) scale(0.1 -0.1)">
     <use xlink:href="#DejaVuSans-4f"/>
     <use xlink:href="#DejaVuSans-6e" x="78.710938"/>
     <use xlink:href="#DejaVuSans-6c" x="142.089844"/>
     <use xlink:href="#DejaVuSans-79" x="169.873047"/>
     <use xlink:href="#DejaVuSans-5f" x="229.052734"/>
     <use xlink:href="#DejaVuSans-6f" x="279.052734"/>
     <use xlink:href="#DejaVuSans-70" x="340.234375"/>
     <use xlink:href="#DejaVuSans-74" x="403.710938"/>
     <use xlink:href="#DejaVuSans-69" x="442.919922"/>
     <use xlink:href="#DejaVuSans-6f" x="470.703125"/>
     <use xlink:href="#DejaVuSans-6e" x="531.884766"/>
    </g>
   </g>
   <g id="text_21">
    <!-- Environmental -->
    <g transform="translate(321.293528 257.675072) scale(0.1 -0.1)">
     <use xlink:href="#DejaVuSans-45"/>
     <use xlink:href="#DejaVuSans-6e" x="63.183594"/>
     <use xlink:href="#DejaVuSans-76" x="126.5625"/>
     <use xlink:href="#DejaVuSans-69" x="185.742188"/>
     <use xlink:href="#DejaVuSans-72" x="213.525391"/>
     <use xlink:href="#DejaVuSans-6f" x="252.388672"/>
     <use xlink:href="#DejaVuSans-6e" x="313.570312"/>
     <use xlink:href="#DejaVuSans-6d" x="376.949219"/>
     <use xlink:href="#DejaVuSans-65" x="474.361328"/>
     <use xlink:href="#DejaVuSans-6e" x="535.884766"/>
     <use xlink:href="#DejaVuSans-74" x="599.263672"/>
     <use xlink:href="#DejaVuSans-61" x="638.472656"/>
     <use xlink:href="#DejaVuSans-6c" x="699.751953"/>
    </g>
   </g>
   <g id="text_22">
    <!-- Healthiest -->
    <g transform="translate(344.591489 221.47461) scale(0.1 -0.1)">
     <use xlink:href="#DejaVuSans-48"/>
     <use xlink:href="#DejaVuSans-65" x="75.195312"/>
     <use xlink:href="#DejaVuSans-61" x="136.71875"/>
     <use xlink:href="#DejaVuSans-6c" x="197.998047"/>
     <use xlink:href="#DejaVuSans-74" x="225.78125"/>
     <use xlink:href="#DejaVuSans-68" x="264.990234"/>
     <use xlink:href="#DejaVuSans-69" x="328.369141"/>
     <use xlink:href="#DejaVuSans-65" x="356.152344"/>
     <use xlink:href="#DejaVuSans-73" x="417.675781"/>
     <use xlink:href="#DejaVuSans-74" x="469.775391"/>
    </g>
   </g>
   <g id="text_23">
    <!-- Need_for_other_trips -->
    <g transform="translate(351.46395 197.517373) scale(0.1 -0.1)">
     <use xlink:href="#DejaVuSans-4e"/>
     <use xlink:href="#DejaVuSans-65" x="74.804688"/>
     <use xlink:href="#DejaVuSans-65" x="136.328125"/>
     <use xlink:href="#DejaVuSans-64" x="197.851562"/>
     <use xlink:href="#DejaVuSans-5f" x="261.328125"/>
     <use xlink:href="#DejaVuSans-66" x="311.328125"/>
     <use xlink:href="#DejaVuSans-6f" x="346.533203"/>
     <use xlink:href="#DejaVuSans-72" x="407.714844"/>
     <use xlink:href="#DejaVuSans-5f" x="448.828125"/>
     <use xlink:href="#DejaVuSans-6f" x="498.828125"/>
     <use xlink:href="#DejaVuSans-74" x="560.009766"/>
     <use xlink:href="#DejaVuSans-68" x="599.21875"/>
     <use xlink:href="#DejaVuSans-65" x="662.597656"/>
     <use xlink:href="#DejaVuSans-72" x="724.121094"/>
     <use xlink:href="#DejaVuSans-5f" x="765.234375"/>
     <use xlink:href="#DejaVuSans-74" x="815.234375"/>
     <use xlink:href="#DejaVuSans-72" x="854.443359"/>
     <use xlink:href="#DejaVuSans-69" x="895.556641"/>
     <use xlink:href="#DejaVuSans-70" x="923.339844"/>
     <use xlink:href="#DejaVuSans-73" x="986.816406"/>
    </g>
   </g>
   <g id="text_24">
    <!-- Other -->
    <g transform="translate(353.056924 183.996229) scale(0.1 -0.1)">
     <use xlink:href="#DejaVuSans-4f"/>
     <use xlink:href="#DejaVuSans-74" x="78.710938"/>
     <use xlink:href="#DejaVuSans-68" x="117.919922"/>
     <use xlink:href="#DejaVuSans-65" x="181.298828"/>
     <use xlink:href="#DejaVuSans-72" x="242.822266"/>
    </g>
   </g>
  </g>
 </g>
</svg>
